<?xml version="1.0" standalone="no"?><!DOCTYPE svg PUBLIC "-//W3C//DTD SVG 1.1//EN" "http://www.w3.org/Graphics/SVG/1.1/DTD/svg11.dtd"><svg t="1514966526171" class="icon" style="" viewBox="0 0 1024 1024" version="1.1" xmlns="http://www.w3.org/2000/svg" p-id="1835" xmlns:xlink="http://www.w3.org/1999/xlink" width="16" height="16"><defs><style type="text/css"></style></defs><path d="M659.3 302.8l-6.2 0-12.4 4.7-6.3 4.7-3.8 4.6-3.2 4.9-1.5 10.9 0.8 5.4 4.6 18.7 3.1 19.4-1.5 12.5-3.1 7 2.3 14 0 28.8-6.2 67.8 4.7 10.1 3.8 3.9 4.7 3.1 4.7 1.6 5.4 0.8 5.5-1.6 5.4-3.1 87.8-9.3 17.9-0.8 35 2.3 1.5-17.1 0-17.3-8.5-68.4-0.8-34.3-7.8-18.6-7-1.6-14-1.6-21.8 2.4-56.6 12.4-14 0 7-38.1-6.2-10.1-4.7-11.1-2.3-3.8-1.6-1.6L659.3 302.8M898.8 64.6l10.9 3.1 14 7.8 8.6 7 7.7 8.6 12.5 18.6 0 7-6.2 20.3L926.8 176l-3.1 13.3 0 7 0.8 6.2 5.4 14-10.9 11.7-8.5 12.4-2.4 6.2-0.7 7 0 3.9 1.5 7.8 6.2 11.7-5.4 15.5L902.7 338l-3.1 61.5 0.8 12.4-3.2 52.9 2.4 19.6 1.5 6.2 6.3 11.7 0.7 82.5 3.9 47.4 3.1 22 10.9 167.4-0.7 41.2-5.5 39.7L915.9 922l-14 37.3-10.1 18.8-5.4 5.5-14 17.1-5.5 4.7-12.4 5.4-7.8 1.6-6.2 6.2-3.2 2.3-6.2 3.1-3.1 0-14-2.3-21-9.3-3.9-4.7-4.7-3.9-38.1-24.9-4.6-3.9-9.2-9.3-3.1-5.6-2.4-6.2-2.3-14-15.6-13.3-19.4-26.4-14-28.8 56 21.8 29.4 7 15.6 0 16.3-2.4 2.3-17.1 3.1-89.6-0.7-108.1 0.7-35.8 2.4-35.2-1.6-2.3-1.5-1.6-4.7-3.1-4.7-1.5-4.6 0-9.4-1.6-4.6-1.6-3.2-3.1-7 1.6-7 0-38.7-6.2-7.8 0.7-11.7-7.7-10.8-5.5-22.6-7-12.5-2.3-41.2-3.9L604.1 570l-2.3 3.1-3.9 7.8-2.4 7.8-2.3 17.9 0.8 17.1 1.5 7.8-5.4 8.5-7.8 18.8-17.9 80.2-12.4 28-13.2 16.3-11.7 26.6-17.1 21-19.3 19.5-20.3 17.1L416.8 894l26.4-41.3 34.2-45.9 2.4-10.2 3.9-31.2 2.3-9.3 3.9-9.3 6.1-8.6 8.5-7.8 8.6-47.4 3.1-11.7 8.5-21.8 6.3-10.3 3.9-54.4 10.1-56.8 8.5-37.4-1.5-5.4-1.6-12.6 0-6.2 6.2-50.6 0-12.4-3.1-11.7 3.9-7.8 0-76.4-10.1-56-8.5-25.7-10.9-18.7-4.7-5.4-1.6-12.4 0.8-5.5 1.6-5.4 2.3-5.5 7-7.8 5.5-1.5 14.7 5.4 13.3 7.8 6.2 4.7 16.3 16.3 36.6 49 15.5 5.5 14 2.3L669.5 254.6l41.2-3.1 14 0 15.4 3.1 3.9 3.9 16.3 10.1 6.2 2.3 14.8 2.4 7.8 0 2.3-4.7 2.4-14.8-3.1-43.5 2.3-24.2 1.6-4.6 0-7.8-0.8-4.7-10.9-34.4-1.6-8.5 0-8.6-9.3-3.1-8.6 0-16.3 3.9-15.4 5.4-8.6 1.6-10.1 0-7 2.3-17.9 1.6-17.9-3.1-17.9-7-7-5.5-29.5 1.6-7-0.8-6.3-2.3-3.1-1.6-3.1-2.3-2.3-2.3L591.7 102l3.8-10.9 79.4-41.3 38.9-22.5L751 0l18.7 1.6 17.9 3.9L813.2 14l24.1 12.5 22.6 16.3 21 21.8 6.2-0.8 5.5 0L898.8 64.6" p-id="1836" fill="#2c2c2c"></path><path d="M328.8 134.6 355.3 144l26.5 12.6 27.2 10.9 0.8 3.9L409.8 176l-1.6 8.6-17.1 42.8-0.8 3.9 0 4.6-7.8 71.6 0.8 4.7 0 3.9-3.9 17.2-3.1 8.6-2.3 15.6 0 3.8 0.8 3.9 1.5 3.9 2.3 3.1-3.1 5.5-0.7 4.6 1.5 6.3 5.5 7.8 0.7 3.1-7.7 4.6-4.7 7-2.4 17.9 1.6 27.3-5.4 21-7 43.7-3.9 14-6.3 12.4-8.5 10.9-12.5 8.6-7.7 1.5-6.3 0-5.4-1.5-4.7-2.3-17.9-17.2-30.3 11.7 10.9-11.7 8.5-12.4 13.3-26.5 7-27.2 2.3-28.9 2.3-10.9 0.8-10.1-3.1-24.9-44.4-6.3-73.7 3.2-3.1 2.3-0.8 3.1 0 3.1 1.6 3.1 2.3 7 0.8 3.9-0.8 3.9L183.5 500l-0.8 17.1-3.8 15.6-3.2 7-4.6 7-5.5 6.2-12.4 11.7-3.1 1.5-3.1 0.8L141.5 566.9l-5.4-1.6-6.3-3.1-10.9-7.8-6.2-3.1-10.1-21.8-6.2-21.7-1.6-10.9-1.5-33.6 0.8-45.2-0.8-22.5-5.5-49.8 4.7-49.2-2.3-26.4 1.5-2.4 1.6-3.1 1.5-5.4-0.7-17.9 0.7-5.5 0.8-2.3 1.6-2.3 1.5-1.6 3.1-1.5 38.2 56 24.1 48.4 6.2 17.1 6.2 0 5.5-0.8 11.6-4.7 26.5-17.1c3.4-1.534 6.766-3.1 10.1-4.7l5.4-0.7 5.5 0 5.3 1.5 5.4 3.1 5.5 4.7 22.5 2.3 19.5-2.3 10.9-11.7 0.8-14.9-1.6-14-12.4-50.6-2.4-20.2 0.8-7-3.1-3.9-3.1-2.3-3.1-1.6-3.2-0.8-3.1 0-3.1 0.8-6.2 2.3-12.4 7-6.3 2.4-3.1 0.8-14.6-3.2-49.8-3.8-16.3-4.7-9.4-4.7L154.7 197.8 247.2 162l35.7-18.8 16.4-10.1 14.8-0.8L328.8 134.6" p-id="1837" fill="#2c2c2c"></path><path d="M234.9 577.8l-22.6 35-26.4 32.8-23.4 22.6-17.1 12.4-18.7 10.9-10.1 4.7-6.2-0.8L84.7 698.5l-7.8-2.3-2.3-2.3-1.6-2.4L71.5 688.4l1.5-1.5 1.6-2.4 5.4-2.3L107.3 676l37.3-18.7 34.3-28.2 52.1-51.3L234.9 577.8" p-id="1838" fill="#2c2c2c"></path></svg>